<?xml version="1.0" encoding="UTF-8" standalone="no"?>
<svg
   version="1.1"
   x="0px"
   y="0px"
   viewBox="0 0 895 215"
   xml:space="preserve"
   xmlns="http://www.w3.org/2000/svg">
  <path
   d="m 191.62659,46.195438 c -31.82616,-2.76749 -58.48447,-20.261999 -70.64166,-29.595229 -3.75589,-2.88045 -8.33072,-4.41951 -13.06088,-4.41951 -4.73015,0 -9.319094,1.53906 -13.060864,4.40539 -12.17131,9.33323 -38.84374,26.841859 -70.684026,29.595229 -4.828994,0.4236 -8.373077,4.73016 -7.89301,9.55915 l 1.016629,10.194536 c 0.451839,4.57484 1.073115,9.093194 1.835583,13.540944 1.736748,10.13807 10.505178,17.55099 20.784444,17.55099 8.78255,0 16.56259,-5.4785 19.71132,-13.68214 2.65454,-6.8905 6.749293,-13.216194 12.128968,-18.609984 19.810172,-19.810156 51.382166,-20.812666 72.406646,-3.04989 l -15.51773,16.139014 c -12.25604,-9.403844 -29.919984,-8.542534 -41.131154,2.68277 -7.6812,7.68121 -10.87229,18.65233 -8.27423,29.722302 0.67775,2.89458 1.82146,5.6903 3.36052,8.24601 7.41293,12.19956 21.165674,17.87574 35.045494,14.43049 5.36555,-1.32727 10.05334,-4.40539 14.10574,-8.1754 4.0524,-3.77 10.36398,-4.3348 14.72702,-0.90367 5.35142,4.22184 5.6903,12.00188 1.01662,16.66143 -11.77596,11.77597 -28.07028,17.39567 -44.97174,15.23533 -9.530914,-1.2143 -18.609984,-5.08314 -26.121744,-11.06997 -8.952007,-7.13052 -15.17887,-16.54847 -18.22875,-27.02541 -1.62379,-5.57735 -6.74929,-9.40383 -12.55256,-9.40383 -9.54502,0 -15.94132,9.89803 -11.94541,18.5535 15.32006,33.20991 39.930978,59.91057 70.401634,74.73642 2.4145,1.17195 5.22435,1.17195 7.62473,0 47.51333,-23.10009 80.77972,-75.04706 86.8089,-135.593026 l 1.08723,-10.914646 c 0.48008,-4.85723 -3.12049,-8.83904 -8.00596,-8.83904 z"
   fill="#0078b4"
   style="stroke-width:1.41198" />
  <path
   d="m 116.94664,120.83303 c -2.21681,0 -4.43363,-0.80483 -6.19862,-2.4145 L 91.121426,100.38747 c -3.72764,-3.417012 -3.96768,-9.220272 -0.55067,-12.933792 3.417,-3.72764 9.20615,-3.96769 12.933784,-0.55067 l 13.03263,11.97363 38.37778,-39.93096 c 3.50172,-3.64292 9.30499,-3.75589 12.94792,-0.25416 3.64292,3.501726 3.75587,9.304986 0.25415,12.94792 L 123.5265,118.02318 c -1.79322,1.86382 -4.19359,2.80985 -6.6081,2.80985 z"
   fill="#3cc83c"
   style="stroke-width:1.41198" />
  <path
   d="m 233.76026,109.35358 c 0,-27.406652 17.90398,-48.544086 45.84718,-48.544086 23.82021,0 38.50486,13.795104 41.73832,33.675874 h -23.82021 c -1.60966,-8.06244 -7.87889,-14.1481 -16.83087,-14.1481 -14.68466,0 -22.21055,11.28177 -22.21055,29.016312 0,17.73455 6.98934,29.01632 21.84342,29.01632 9.85567,0 16.845,-5.19611 18.45467,-15.58833 h 23.4672 c -1.60966,19.52777 -16.83087,35.10197 -41.37119,35.10197 -29.01631,0 -47.10385,-21.13743 -47.10385,-48.54408 z"
   fill="#0078b4"
   style="stroke-width:1.41198" />
  <path
   d="m 328.33508,109.35358 c 0,-27.406652 19.52777,-48.544086 48.00753,-48.544086 28.47976,0 48.00753,21.137434 48.00753,48.544086 0,27.40665 -19.52777,48.54408 -48.00753,48.54408 -28.47976,0 -48.00753,-21.13743 -48.00753,-48.54408 z m 71.29118,0 c 0,-17.918102 -8.41544,-30.089422 -23.28365,-30.089422 -14.86821,0 -23.28365,12.18544 -23.28365,30.089422 0,17.90398 8.23188,29.90587 23.28365,29.90587 15.05178,0 23.28365,-12.00189 23.28365,-29.90587 z"
   fill="#0078b4"
   style="stroke-width:1.41198" />
  <path
   d="m 431.14179,109.35358 c 0,-27.406652 19.52777,-48.544086 48.00752,-48.544086 28.47977,0 48.00753,21.137434 48.00753,48.544086 0,27.40665 -19.52776,48.54408 -48.00753,48.54408 -28.47975,0 -48.00752,-21.13743 -48.00752,-48.54408 z m 71.29118,0 c 0,-17.918102 -8.41544,-30.089422 -23.28366,-30.089422 -14.86821,0 -23.28364,12.18544 -23.28364,30.089422 0,17.90398 8.23187,29.90587 23.28364,29.90587 15.05178,0 23.28366,-12.00189 23.28366,-29.90587 z"
   fill="#0078b4"
   style="stroke-width:1.41198" />
  <path
   d="m 573.17347,113.29303 -10.56166,10.92877 v 30.99309 H 538.4245 V 27.147759 h 24.18731 v 70.924059 l 32.60276,-34.748984 h 29.19988 l -33.85943,34.932534 37.96831,56.959522 h -29.55287 l -25.79699,-41.90774 z"
   fill="#0078b4"
   style="stroke-width:1.41198" />
  <path
   d="m 636.20453,27.133629 h 24.35676 v 21.857549 h -24.35676 z m 0,36.189205 h 24.35676 v 91.892056 h -24.35676 z"
   fill="#0078b4"
   style="stroke-width:1.41198" />
  <path
   d="m 671.85718,109.17002 c 0,-27.223092 18.44054,-48.360526 45.31064,-48.360526 29.55285,0 45.31061,22.563544 45.31061,55.349866 h -66.63161 c 1.79323,14.14809 9.67211,22.93065 23.46722,22.93065 9.48858,0 15.05174,-4.29244 17.73455,-11.28177 h 24.00373 c -3.40287,16.29432 -17.91805,30.08942 -41.55473,30.08942 -30.45654,0 -47.64041,-21.32098 -47.64041,-48.71352 z m 24.35676,-9.855662 h 40.83465 c -0.72016,-11.64889 -8.41547,-19.69721 -19.52778,-19.69721 -12.89143,0 -19.16065,7.70945 -21.30687,19.69721 z"
   fill="#0078b4"
   style="stroke-width:1.41198" />
  <path
   d="m 818.71784,106.48725 -29.92,-43.164416 h 27.75972 l 16.2943,26.333534 h 0.35294 l 15.40483,-26.333534 h 25.26043 l -28.47979,42.994976 32.77226,48.89708 h -29.01636 l -17.01446,-30.45654 h -0.35302 l -19.88071,30.45654 h -26.68654 l 33.49229,-48.71352 z"
   fill="#3cc83c"
   style="stroke-width:1.41198" />
</svg>