<svg width="92" height="91" viewBox="0 0 92 91" fill="none" xmlns="http://www.w3.org/2000/svg">
<path d="M40.3125 37.9167C43.4536 37.9167 46 35.3703 46 32.2292C46 29.088 43.4536 26.5417 40.3125 26.5417C37.1714 26.5417 34.625 29.088 34.625 32.2292C34.625 35.3703 37.1714 37.9167 40.3125 37.9167Z" fill="#93D0B6"/>
<path d="M32.7292 56.875C35.8704 56.875 38.4167 54.3286 38.4167 51.1875C38.4167 48.0464 35.8704 45.5 32.7292 45.5C29.5881 45.5 27.0417 48.0464 27.0417 51.1875C27.0417 54.3286 29.5881 56.875 32.7292 56.875Z" fill="#93D0B6"/>
<path d="M57.3749 60.6667C59.469 60.6667 61.1666 58.9691 61.1666 56.875C61.1666 54.7809 59.469 53.0833 57.3749 53.0833C55.2808 53.0833 53.5833 54.7809 53.5833 56.875C53.5833 58.9691 55.2808 60.6667 57.3749 60.6667Z" fill="#93D0B6"/>
<path d="M83.727 41.6704C76.9399 41.5567 69.6978 34.2767 73.5653 25.6696C62.3041 29.4612 51.6495 19.6408 53.8866 8.37957C27.4587 2.80582 8.08325 24.3046 8.08325 45.5C8.08325 66.43 25.0699 83.4167 45.9999 83.4167C68.3328 83.4167 85.9641 64.155 83.727 41.6704ZM45.9999 75.8333C29.2787 75.8333 15.6666 62.2212 15.6666 45.5C15.6666 32.9496 26.0178 14.4842 46.3033 15.0908C47.8958 24.7217 55.5549 32.3808 65.2237 33.8217C65.4891 35.1867 67.1953 43.4904 76.2953 47.5854C75.1958 63.9275 61.3941 75.8333 45.9999 75.8333Z" fill="#93D0B6"/>
</svg>
