<svg width="60" height="84" viewBox="0 0 60 84" fill="none" xmlns="http://www.w3.org/2000/svg">
<path d="M8.3125 30.9167C11.4536 30.9167 14 28.3703 14 25.2292C14 22.088 11.4536 19.5417 8.3125 19.5417C5.17138 19.5417 2.625 22.088 2.625 25.2292C2.625 28.3703 5.17138 30.9167 8.3125 30.9167Z" fill="#93D0B6"/>
<path d="M0.729248 49.875C3.87037 49.875 6.41675 47.3286 6.41675 44.1875C6.41675 41.0464 3.87037 38.5 0.729248 38.5C-2.41187 38.5 -4.95825 41.0464 -4.95825 44.1875C-4.95825 47.3286 -2.41187 49.875 0.729248 49.875Z" fill="#93D0B6"/>
<path d="M25.3749 53.6667C27.469 53.6667 29.1666 51.9691 29.1666 49.875C29.1666 47.7809 27.469 46.0833 25.3749 46.0833C23.2808 46.0833 21.5833 47.7809 21.5833 49.875C21.5833 51.9691 23.2808 53.6667 25.3749 53.6667Z" fill="#93D0B6"/>
<path d="M51.727 34.6704C44.9399 34.5567 37.6978 27.2767 41.5653 18.6696C30.3041 22.4612 19.6495 12.6408 21.8866 1.37957C-4.54133 -4.19418 -23.9167 17.3046 -23.9167 38.5C-23.9167 59.43 -6.93008 76.4167 13.9999 76.4167C36.3328 76.4167 53.9641 57.155 51.727 34.6704ZM13.9999 68.8333C-2.72133 68.8333 -16.3334 55.2212 -16.3334 38.5C-16.3334 25.9496 -5.98216 7.48416 14.3033 8.09082C15.8958 17.7217 23.5549 25.3808 33.2237 26.8217C33.4891 28.1867 35.1953 36.4904 44.2953 40.5854C43.1958 56.9275 29.3941 68.8333 13.9999 68.8333Z" fill="#93D0B6"/>
</svg>
