<?xml version="1.0" encoding="UTF-8" standalone="no"?>
<svg
   version="1.1"
   x="0px"
   y="0px"
   viewBox="0 0 151 156"
   enable-background="new 0 0 151 156"
   xml:space="preserve"
   xmlns="http://www.w3.org/2000/svg">
  <defs />
  <path
    d="m 136.46212,34.52 c -22.95,-1.99 -42.169994,-14.61 -50.939994,-21.34 -2.7,-2.07 -6.01,-3.18 -9.42,-3.18 -3.41,0 -6.71,1.11 -9.42,3.18 -8.78,6.73 -28.01,19.35 -50.96,21.34 -3.49,0.3 -6.0400005,3.41 -5.690001,6.89 l 0.730001,7.35 c 0.33,3.29 0.77,6.55 1.32,9.77 1.25,7.31 7.58,12.65 14.99,12.65 6.33,0 11.94,-3.95 14.21,-9.87 1.91,-4.97 4.86,-9.53 8.74,-13.41 14.28,-14.28 37.05,-15.01 52.209994,-2.2 L 91.052126,57.34 c -8.84,-6.79 -21.57,-6.16 -29.66,1.93 -5.54,5.54 -7.84,13.45 -5.96,21.44 0.49,2.09 1.31,4.11 2.43,5.94 5.35,8.8 15.27,12.890005 25.27,10.410005 3.87,-0.960005 7.25,-3.180005 10.17,-5.890005 2.92,-2.72 7.469994,-3.13 10.619994,-0.65 3.86,3.04 4.1,8.650005 0.74,12.02 -8.489994,8.49 -20.239994,12.54 -32.419994,10.99 -6.87,-0.88 -13.42,-3.66 -18.83,-7.98 -6.45,-5.14999 -10.95,-11.93 -13.14,-19.49 -1.17,-4.02 -4.86,-6.78 -9.05,-6.78 -6.88,0 -11.49,7.13 -8.61,13.38 11.05,23.95 28.79,43.2 50.77,53.89 1.74,0.84 3.77,0.84 5.5,0 34.259994,-16.66 58.239994,-54.12 62.589994,-97.76 l 0.78,-7.87 c 0.35,-3.5 -2.25,-6.37 -5.77,-6.37 z"
    fill="#0078b4" />
  <path
    d="m 82.612126,88.33 c -1.6,0 -3.2,-0.58 -4.47,-1.74 l -14.15,-13 c -2.68,-2.47 -2.86,-6.64 -0.39,-9.33 2.47,-2.68 6.64,-2.86 9.33,-0.39 l 9.39,8.63 27.669994,-28.79 c 2.53,-2.63 6.71,-2.71 9.33,-0.18 2.63,2.53 2.71,6.71 0.19,9.34 L 87.362126,86.32 c -1.29,1.35 -3.03,2.03 -4.76,2.03 z"
    fill="#3cc83c" />
</svg>